<svg width="1045" height="810" viewBox="0 0 1045 810" fill="none" xmlns="http://www.w3.org/2000/svg">
<path d="M122.31 760.43C80.0139 800.778 71.2729 771.117 63.891 741.84C56.509 712.562 57.591 698.142 52.8547 665.29C51.8859 658.571 50.3972 654.732 48.6416 652.877C42.2951 646.17 27.7872 651.351 27.562 642.12C27.0534 621.268 31.2215 591.648 53.4535 566.988C89.9846 526.467 124.286 546.434 149.834 554.351C152.822 555.276 156.015 554.356 158.36 552.287C177.097 535.753 208.513 521.082 221.763 559.002C228.674 578.779 232.526 587.389 235.316 590.547C239.287 595.042 244.697 586.618 248.235 581.774L260.134 565.483L272.092 550.462C281.054 539.203 290.995 528.597 303.053 520.742C355.149 486.808 385.684 505.651 400.512 521.32C401.557 522.425 403.469 522.099 404.181 520.755C408.458 512.689 421.123 496.042 447.738 492.205C477.497 487.915 499.558 504.095 509.932 518.373C511.462 520.478 514.543 520.898 516.407 519.083L531.443 504.442C557.064 480.112 598.26 460.703 621.55 472.786C643.089 483.96 648.568 485.807 659.042 478.488C693.922 454.116 741.291 459.59 763.658 474.413C770.122 478.697 779.022 480.753 785.574 476.605C807.566 462.682 821.694 453.28 827.518 445.93C829.64 443.25 828.815 439.64 826.789 436.886C811.584 416.219 817.201 400.233 822.296 394.549C832.631 383.017 888.049 363.071 938.103 336.695C988.158 310.319 993.14 325.486 991.395 337.825C985.39 380.315 968.881 471.018 950.888 493.909C937.164 511.372 918.531 505.235 905.597 496.151C898.572 491.217 890.054 486.048 882.73 490.526C874.639 495.473 870.151 505.155 868.63 511.349C867.926 519.022 865.149 523.257 884 534.117C900.859 543.83 895.288 573.458 885.577 585.487C865.927 609.825 797.78 664.001 766.081 682.711C726.457 706.099 726.676 686.56 712.255 673.961C705.246 667.837 698.283 668.181 686.674 670.149C646.614 676.941 652.359 642.26 638.141 658.901C623.923 675.542 584.725 699.514 560.793 696.253C536.86 692.992 537.429 663.622 482.849 699.303C443.892 724.772 416.935 710.985 405.3 697.808C403.137 695.358 399.529 694.483 396.715 696.144C381.141 705.337 357.66 718.236 334.817 729.403C311.067 741.012 291.158 730.433 283.001 721.326C282.031 720.243 280.466 719.846 279.16 720.486L237.483 740.903C197.796 767.58 179.181 746.549 172.591 726.162C170.359 719.257 167.433 717.415 162.178 722.42C155.215 729.05 142.941 740.749 122.31 760.43Z" fill="white"/>
<path d="M179.45 56.131C213.585 6.15665 312.719 34.9396 332.532 54.5019C333.368 55.3271 334.75 55.3647 335.605 54.5594C403.274 -9.17466 461.396 35.0161 480.717 60.2172C481.52 61.2654 483.133 61.2574 483.978 60.2417C570.226 -43.513 656.716 12.1069 674.359 41.7933C675.399 43.5429 677.839 44.0146 679.401 42.7097C762.939 -27.0898 851.727 22.364 884.496 62.2371C917.679 102.615 926.939 159.437 915.041 210.031C903.143 260.624 872.334 301.266 843.427 330.048C814.52 358.83 737.182 414.602 701.508 422.146C669.343 428.947 646.563 397.694 635.66 378.823C633.91 375.794 630.003 374.768 627.107 376.732C608.028 389.671 573.676 415.343 548.958 422.176C524.628 428.903 498.877 417.129 486.303 405.595C484.515 403.955 481.414 404.652 480.663 406.958C464.221 457.433 428.956 467.603 395.751 453.38C349.319 433.492 355.287 359.079 327.439 401.476C319.039 414.263 314.178 424.704 303.568 432.174C262.721 460.93 243.415 419.186 235.29 401.619L235.232 401.494C231.075 380.86 206.421 386.89 192.797 466.023C179.172 545.155 101.614 502.342 87.9189 465.515C71.5061 429.847 76.7088 381.149 86.6442 311.359C95.6957 247.778 141.9 173.974 167.212 142.636C168.995 140.428 169.313 137.398 168.058 134.853C156.623 111.678 153.787 93.702 179.45 56.131Z" fill="white"/>
<path d="M887.809 443.108L905.475 415.17C907.815 411.471 903.365 407.241 899.788 409.764L866.327 433.37C864.922 434.362 863.041 434.344 861.655 433.327L844.822 420.975C842.443 419.229 842.709 415.596 845.317 414.215L961.313 352.798C964.491 351.115 968.102 354.153 966.988 357.572L930.668 469.053C929.86 471.534 926.932 472.59 924.727 471.195L889.051 448.626C887.185 447.446 886.628 444.975 887.809 443.108Z" fill="black"/>
<path d="M607.919 528.931C577.957 534.106 565.412 563.476 562.496 579.071C562.354 579.83 563.103 580.425 563.819 580.136C573.261 576.315 591.899 568.317 602.345 562.194C613.426 555.699 614.755 558.003 615.895 560.743C616.94 563.256 617.647 566.68 612.675 573.337C607.702 579.995 587.946 595.211 578.689 601.987C575.052 605.471 568.688 609.081 569.324 618.812C569.96 628.544 579.73 629.914 584.958 627.346C592.717 623.963 609.653 613.371 615.323 598.064C620.972 582.812 628.015 580.037 629.338 586.79C629.347 586.837 629.353 586.885 629.354 586.933C629.746 597.141 625.947 621.87 607.602 639.723C584.619 662.09 565.958 658.474 559.681 652.001C553.404 645.527 547.429 632.386 542.688 616.561C539.233 605.025 538.071 584.994 537.86 574.065C537.842 573.112 536.594 572.686 535.963 573.4C532.251 577.596 526.824 582.079 525.263 577.084C523.41 571.157 525.337 563.363 530.521 555.084C538.689 542.038 556.351 518.528 574.713 507.987C593.076 497.446 599.976 496.933 607.294 499.394C613.335 501.425 614.456 504.65 619.508 513.909C624.56 523.167 613.887 527.781 607.919 528.931Z" fill="black" stroke="black" stroke-width="4"/>
<path d="M286.477 131.206C279.19 183.9 285.677 251.281 290.617 284.062C290.788 285.194 292.549 285.23 292.794 284.112C303.656 234.357 362.882 141.998 352.999 145.692C345.152 148.625 340.76 145.99 339.326 144.069C339.187 143.882 339 143.739 338.802 143.617C337.013 142.505 334.29 136.868 341.85 124.063C353.93 103.605 360.945 95.264 387.622 77.1161C414.134 59.0806 432.841 71.6948 435.267 77.7801C439.154 87.5268 436.962 99.6695 435.412 108.254L435.376 108.454C432.082 127.028 423.913 178.757 417.586 237.085C411.26 295.413 418.84 348.616 423.421 367.926C426.776 380.372 430.382 405.679 417.969 407.346C405.557 409.012 392.546 402.42 387.592 398.916C371.169 383.958 371.044 368.325 369.993 353.137C369.096 340.176 370.193 254.296 372.591 204.863C372.647 203.714 371.035 203.401 370.646 204.484C350.096 261.69 319.441 354.933 311.051 370.358C306.016 379.616 305.395 379.795 302.783 382.958C295.348 392.149 275.009 401.318 253.131 364.462C232.403 329.545 231.967 255.681 234.614 217.807C234.693 216.68 233.127 216.296 232.677 217.332C225.393 234.126 211.992 266.29 201.827 294.993C190.406 327.243 175.044 404.76 168.791 439.488C166.481 448.331 159.683 464.446 150.98 458.168C142.34 451.935 137.663 442.361 136.37 438.261C136.35 438.199 136.329 438.148 136.299 438.092C131.413 428.828 126.541 392.836 145.862 322.14C165.027 252.019 207.076 170.793 226.344 137.803C222.305 144.406 214.97 151.13 213.534 131.69C212.019 111.183 223.702 94.1887 238.134 87.5187C257.5 78.5679 294.281 74.7743 286.477 131.206Z" fill="black"/>
<path d="M286.477 131.206C279.19 183.9 285.677 251.281 290.617 284.062C290.788 285.194 292.549 285.23 292.794 284.112C303.656 234.357 362.882 141.998 352.999 145.692C345.152 148.625 340.76 145.99 339.326 144.069C339.187 143.882 339 143.739 338.802 143.617C337.013 142.505 334.29 136.868 341.85 124.063C353.93 103.605 360.945 95.264 387.622 77.1161C414.134 59.0806 432.841 71.6948 435.267 77.7801C439.184 87.6025 436.927 99.8583 435.376 108.454C432.082 127.028 423.913 178.757 417.586 237.085C411.26 295.413 418.84 348.616 423.421 367.926C426.776 380.372 430.382 405.679 417.969 407.346C405.557 409.012 392.546 402.42 387.592 398.916C371.169 383.958 371.044 368.325 369.993 353.137C369.096 340.176 370.193 254.296 372.591 204.863C372.647 203.714 371.035 203.401 370.646 204.484C350.096 261.69 319.441 354.933 311.051 370.358C306.016 379.616 305.395 379.795 302.783 382.958C295.348 392.149 275.009 401.318 253.131 364.462C232.403 329.545 231.967 255.681 234.614 217.807C234.693 216.68 233.127 216.296 232.677 217.332C225.393 234.126 211.992 266.29 201.827 294.993C190.406 327.243 175.044 404.76 168.791 439.488C166.481 448.33 159.683 464.446 150.98 458.168C142.34 451.935 137.663 442.361 136.37 438.261C136.35 438.199 136.329 438.148 136.299 438.092C131.413 428.828 126.541 392.836 145.862 322.14C165.24 251.24 208.014 168.985 226.978 136.721C223.128 143.589 215.049 152.198 213.534 131.69C212.019 111.183 223.702 94.1887 238.134 87.5187C257.5 78.5679 294.281 74.7743 286.477 131.206Z" stroke="black" stroke-width="4"/>
<path d="M628.014 115.415C565.297 115.826 530.041 175.201 519.615 206.391C519.37 207.124 520.027 207.811 520.78 207.637C540.267 203.134 581.869 192.544 605.477 183.092C629.794 173.356 631.653 178.641 632.983 184.772C634.203 190.397 634.436 197.808 622.237 210.011C610.039 222.214 565.432 247.183 544.654 258.142C536.208 264.168 522.282 269.507 520.207 290.097C518.131 310.686 537.134 316.955 548.437 313.4C565.065 309.021 602.461 292.746 619.02 262.684C635.58 232.621 650.62 229.349 650.831 244.126C648.159 265.542 632.117 316.137 589.32 347.187C535.824 385.999 499.871 371.935 489.584 356.201C479.297 340.468 471.901 310.884 467.889 276.112C464.825 249.552 469.984 204.345 473.335 182.332C473.48 181.38 472.313 180.784 471.6 181.431C462.781 189.431 448.24 199.41 446.718 187.423C445.061 174.375 451.58 158.732 464.756 143.209C485.519 118.749 528.8 75.6926 569.022 60.0224C609.245 44.3522 623.174 45.6811 636.915 53.379C648.259 59.7339 649.384 66.8722 656.274 88.009C663.163 109.146 640.305 115.087 628.014 115.415Z" fill="black" stroke="black" stroke-width="4"/>
<path d="M674.007 344.533L684.838 160.756C684.891 159.866 683.839 159.347 683.159 159.924C675.593 166.355 662.118 176.106 656.879 173.479C651.187 170.624 648.889 155.164 658.729 142.098C674.25 119.22 694.777 98.6674 720.891 81.7325C747.005 64.7976 773.697 61.7521 783.778 62.3463C807.744 64.1087 858.962 80.245 869.708 118.839C880.682 158.253 864.371 197.659 850.541 223.858C819.375 282.902 700.026 361.182 690.75 362.315C681.474 363.448 674.423 354.265 674.007 344.533Z" fill="black" stroke="black" stroke-width="3"/>
<path d="M721.774 280.039L728.117 172.424C728.98 157.78 727.363 149.707 748.861 140.058C770.36 130.408 804.2 130.373 818.432 131.562C831.192 134.063 852.168 148.665 833.998 187.062C817.033 222.913 759.668 264.131 727.729 283.664C725.006 285.33 721.586 283.225 721.774 280.039Z" fill="white" stroke="black" stroke-width="4"/>
<path d="M741.019 240.018L744.866 174.74C745.033 171.909 747.519 169.783 750.342 170.057L786.064 173.531L815.278 176.372C819.663 176.799 821.393 182.277 818.048 185.145L749.264 244.108C745.915 246.979 740.759 244.422 741.019 240.018Z" fill="url(#paint0_linear_3503_10198)"/>
<path d="M93.8864 728.523L75.671 637.093C75.4684 636.076 73.9299 635.973 73.476 636.905C69.5647 644.938 64.0277 642.718 63.9517 638.719C63.5489 617.434 73.2015 573.817 115.034 569.626C152.761 565.845 160.485 584.483 158.201 602.016C157.706 605.814 156.308 609.417 154.684 612.886L151.212 620.299L143.409 632.958C142.986 633.644 143.51 634.522 144.314 634.482C155.093 633.95 159.945 633.768 161.631 634.245C183.303 639.273 180.052 672.819 170.462 686.33C160.872 699.841 135.612 720.361 117.529 731.162C99.4463 741.964 94.2328 733.903 93.8864 728.523Z" fill="black" stroke="black" stroke-width="4"/>
<path d="M105.564 646.811L100.895 619.271C100.826 618.862 101.016 618.453 101.373 618.243L110.092 613.105L119.489 608.547C119.533 608.526 119.579 608.507 119.626 608.493C129.332 605.475 140.015 607.753 135.45 620.531C131.089 632.738 115.35 643.231 106.972 647.532C106.379 647.837 105.676 647.467 105.564 646.811Z" fill="white"/>
<path d="M113.294 706.62L107.539 672.674C107.47 672.264 107.661 671.854 108.02 671.644L131.539 657.877C145.487 650.892 162.578 650.483 157.341 667.918C152.266 684.81 127.549 700.835 114.715 707.342C114.119 707.644 113.406 707.278 113.294 706.62Z" fill="white"/>
<path d="M105.564 646.811L100.895 619.271C100.826 618.862 101.016 618.453 101.373 618.243L110.092 613.105L119.489 608.547C119.533 608.526 119.579 608.507 119.626 608.493C129.332 605.475 140.015 607.753 135.45 620.531C131.089 632.738 115.35 643.231 106.972 647.532C106.379 647.837 105.676 647.467 105.564 646.811Z" stroke="white" stroke-width="4"/>
<path d="M113.294 706.62L107.539 672.674C107.47 672.264 107.661 671.854 108.02 671.644L131.539 657.877C145.487 650.892 162.578 650.483 157.341 667.918C152.266 684.81 127.549 700.835 114.715 707.342C114.119 707.644 113.406 707.278 113.294 706.62Z" stroke="white" stroke-width="4"/>
<path d="M197.142 698.53L181.916 608.722C181.787 607.963 180.878 607.627 180.25 608.071C173.206 613.053 168.903 609.357 167.411 606.446C167.295 606.22 167.284 605.964 167.368 605.724C169.781 598.84 175.877 582.915 182.039 571.302C188.314 559.479 195.328 561.939 196.5 568.851L216.195 685.018C216.315 685.726 217.113 686.086 217.719 685.701C227.265 679.626 247.161 667.896 259.796 663.699C276.328 658.206 279.211 663.769 282.206 669.986C284.601 674.96 285.934 681.454 278.875 684.673C270.269 688.598 248.421 698.847 229.869 708.449C211.317 718.05 198.864 708.688 197.142 698.53Z" fill="black" stroke="black" stroke-width="7"/>
<path d="M431.224 620.927C437.521 598.772 459.892 562.705 471.011 542.394C471.039 542.344 471.062 542.29 471.08 542.235C480.146 515.449 448.386 516.514 438.052 522.595C430.205 527.213 428.051 532.913 424.873 540.569C421.695 548.225 425.884 552.836 430.054 551.324L439.818 548.022C440.678 547.731 441.452 548.646 441.026 549.448C434.606 561.521 422.336 585.82 416.308 602.242C409.879 619.756 411.308 643.46 415.839 652.277C422.863 665.955 426.391 671.014 437.64 675.27C450.995 680.322 468.718 672.315 477.798 668.484C477.86 668.458 477.914 668.429 477.969 668.39C484.206 664.105 499.894 652.628 513.44 640.52C524.02 631.063 523.746 622.121 521.281 616.669C520.84 615.694 522.214 613.689 523.218 613.318C523.966 613.042 524.44 612.575 524.689 612.155C524.783 611.996 524.798 611.807 524.767 611.625L523.686 605.251L521.656 593.277C520.544 586.717 513.632 584.468 509.465 583.112L509.292 583.055C505.147 581.705 487.67 590.827 465.934 597.934C448.676 603.577 446.817 613.575 448.058 617.97C448.077 618.037 448.102 618.097 448.135 618.158C451.683 624.647 459.753 635.91 464.052 629.732C469.451 621.974 502.926 611.508 501.427 615.868C500.228 619.356 485.429 635.916 478.18 643.761C451.931 668.467 441.56 657.517 434.554 649.104C427.167 638.536 428.215 631.516 431.224 620.927Z" fill="black" stroke="black" stroke-width="6"/>
<path d="M739.278 618.479C726.835 610.317 699.055 607.865 685.647 607.617C685.047 607.605 684.582 608.125 684.647 608.721L686.625 626.711C687.384 631.189 685.261 632.634 678.798 637.033L678.713 637.091C672.184 641.535 668.198 630.994 667.021 625.168L653.734 546.798C653.594 545.971 652.552 545.675 651.981 546.288C641.541 557.488 633.188 560.671 631.763 558.145C628.78 552.857 627.852 536.421 648.001 512.982C668.149 489.543 692.002 486.266 702.7 487.022C707.514 487.363 720.351 487.806 733.654 498.46C746.823 509.007 740.32 529.543 735.16 537.139L700.765 586.386C700.357 586.97 700.665 587.78 701.359 587.942C713.675 590.82 737.113 597.943 742.861 606.053C748.843 614.494 742.865 620.832 739.278 618.479Z" fill="black" stroke="black" stroke-width="4"/>
<path d="M678.075 571.689L671.638 533.722C671.565 533.291 671.778 532.864 672.166 532.662C676.19 530.576 686.273 525.039 699.497 516.904C717.007 506.133 723.385 513.563 722.343 520.833C721.509 526.649 713.256 536.56 709.234 540.788L679.791 572.206C679.225 572.809 678.213 572.505 678.075 571.689Z" fill="white" stroke="white" stroke-width="4"/>
<path d="M309.745 686.034C309.745 686.034 272.713 630.019 274.173 613.574C275.633 597.128 277.299 597.373 277.887 595.603C278.475 593.834 297.483 567.884 312.912 554.07C331.502 537.427 342.721 533.277 363.166 529.81C381.304 526.735 384.768 536.073 388.835 552.092C393.49 579.547 393.7 585.934 395.497 615.821C397.127 642.936 398.019 645.312 393.691 653.446C393.653 653.519 393.607 653.585 393.551 653.646C386.937 660.894 368.285 678.335 345.87 690.861C323.363 703.439 313.88 692.273 309.745 686.034Z" fill="black" stroke="black" stroke-width="12"/>
<path d="M318.832 672.361C318.086 670.949 294 625.321 292.947 619.111C291.878 612.803 292.607 609.586 295.109 603.303C297.611 597.021 309.76 585.592 320.918 575.471C334.36 563.278 341.009 553.922 355.819 551.411C368.958 549.183 376.306 556.222 378.472 563.894C383.117 580.343 381.363 594.998 381.734 619.239C382.04 639.292 378.007 648.115 374.401 652.136L374.266 652.286C369.514 657.586 361.171 666.89 345.036 676.003C328.805 685.17 323.097 678.128 318.894 672.455C318.864 672.415 318.855 672.406 318.832 672.361Z" fill="white" stroke="black" stroke-width="7"/>
<path d="M312.95 624.025C313.25 602.993 321.838 596.356 327.463 593.903C344.393 586.522 352.075 591.459 357.275 595.529C360.48 598.037 370.329 620.145 366.138 634.773C361.947 649.402 353.761 658.857 336.044 659.247C330.642 659.263 325.093 654.609 319.332 645.381C315.4 639.081 312.874 629.387 312.95 624.025Z" fill="url(#paint1_linear_3503_10198)"/>
<path d="M330.013 631.83C326.728 622.741 331.101 614.676 333.697 611.779C339.082 604.971 345.122 607.386 347.469 609.444C349.779 611.285 353.654 617.64 350.671 628.327C347.688 639.015 342.277 642.031 339.945 642.203C338.003 642.533 333.298 640.919 330.013 631.83Z" fill="white"/>
<circle cx="361.306" cy="570.466" r="8.82297" transform="rotate(-9.62253 361.306 570.466)" fill="url(#paint2_linear_3503_10198)"/>
<path d="M765.258 538.314C767.293 520.663 817.442 486.183 841.943 469.802C841.986 469.774 842.031 469.749 842.078 469.727C854.025 464.244 859.919 477.736 855.548 482.921C855.51 482.965 855.468 483.006 855.423 483.042L841.028 494.653C832.185 502.259 814.271 515.136 800.394 527.259C799.352 528.17 785.731 536.822 796.113 544.645C801.547 548.739 804.576 546.022 817.623 541.544C828.928 537.663 838.152 540.895 843.652 545.514C846.78 548.869 850.742 552.646 851.234 565.442C851.726 578.238 843.185 588.715 838.979 592.759C811.583 616.649 754.217 662.49 745.355 667.101C736.494 671.712 730.702 657.649 736.18 652.291L771.07 625.705L823.543 582.609C832.637 574.405 828.079 566.246 820.724 563.052C807.567 557.338 794.332 568.789 780.099 566.489C775.07 565.676 763.222 555.98 765.258 538.314Z" fill="url(#paint3_linear_3503_10198)"/>
<defs>
<linearGradient id="paint0_linear_3503_10198" x1="792.49" y1="197.807" x2="741.448" y2="288.576" gradientUnits="userSpaceOnUse">
<stop stop-color="#01B3FF"/>
<stop offset="1" stop-color="#00FEFE" stop-opacity="0"/>
</linearGradient>
<linearGradient id="paint1_linear_3503_10198" x1="342.961" y1="610.967" x2="293.066" y2="725.552" gradientUnits="userSpaceOnUse">
<stop stop-color="#01B3FF"/>
<stop offset="1" stop-color="#00FEFE" stop-opacity="0"/>
</linearGradient>
<linearGradient id="paint2_linear_3503_10198" x1="362.992" y1="567.09" x2="354.771" y2="593.204" gradientUnits="userSpaceOnUse">
<stop stop-color="#01B3FF"/>
<stop offset="1" stop-color="#00FEFE" stop-opacity="0"/>
</linearGradient>
<linearGradient id="paint3_linear_3503_10198" x1="774.202" y1="583.732" x2="751.51" y2="667.248" gradientUnits="userSpaceOnUse">
<stop stop-color="#01B3FF"/>
<stop offset="1" stop-color="#00FEFE" stop-opacity="0"/>
</linearGradient>
</defs>
</svg>
